<svg width="576" height="512" viewBox="0 0 576 512" fill="none" xmlns="http://www.w3.org/2000/svg">
<ellipse cx="319.5" cy="256" rx="227.5" ry="221" fill="#E30D24"/>
<path d="M407.425 290.915L424.481 273.855C427.146 271.189 431.783 273.055 431.783 276.894V354.41C431.783 368.538 420.323 380 406.199 380H218.584C204.459 380 193 368.538 193 354.41V166.75C193 152.622 204.459 141.16 218.584 141.16H364.359C368.143 141.16 370.062 145.745 367.397 148.464L350.341 165.524C349.541 166.323 348.475 166.75 347.303 166.75H218.584V354.41H406.199V293.9C406.199 292.781 406.625 291.715 407.425 290.915ZM490.892 183.33L350.927 323.329L302.744 328.66C288.78 330.206 276.894 318.424 278.44 304.35L283.769 256.155L423.735 116.156C435.94 103.948 455.661 103.948 467.814 116.156L490.839 139.187C503.045 151.396 503.045 171.175 490.892 183.33V183.33ZM438.232 199.804L407.265 168.829L308.234 267.937L304.343 302.75L339.148 298.858L438.232 199.804ZM472.77 157.314L449.745 134.283C447.56 132.097 443.989 132.097 441.857 134.283L425.387 150.756L456.354 181.731L472.824 165.257C474.956 163.018 474.956 159.499 472.77 157.314V157.314Z" fill="white"/>
</svg>
